<svg id="visual" viewBox="0 0 900 600" width="900" height="600" xmlns="http://www.w3.org/2000/svg" xmlns:xlink="http://www.w3.org/1999/xlink" version="1.1"><rect x="0" y="0" width="900" height="600" fill="#931C1C"></rect><path d="M459 0L476 38L495 75L453 113L447 150L421 188L405 225L405 263L465 300L428 338L487 375L469 413L429 450L450 488L407 525L388 563L412 600L0 600L0 563L0 525L0 488L0 450L0 413L0 375L0 338L0 300L0 263L0 225L0 188L0 150L0 113L0 75L0 38L0 0Z" fill="#f5730a"></path><path d="M422 0L363 38L388 75L405 113L364 150L404 188L434 225L351 263L343 300L421 338L380 375L335 413L363 450L377 488L376 525L382 563L387 600L0 600L0 563L0 525L0 488L0 450L0 413L0 375L0 338L0 300L0 263L0 225L0 188L0 150L0 113L0 75L0 38L0 0Z" fill="#e5650a"></path><path d="M356 0L332 38L343 75L352 113L325 150L290 188L295 225L318 263L322 300L287 338L305 375L358 413L288 450L363 488L354 525L358 563L344 600L0 600L0 563L0 525L0 488L0 450L0 413L0 375L0 338L0 300L0 263L0 225L0 188L0 150L0 113L0 75L0 38L0 0Z" fill="#d65809"></path><path d="M277 0L256 38L239 75L314 113L293 150L274 188L321 225L249 263L257 300L308 338L250 375L312 413L292 450L244 488L241 525L249 563L301 600L0 600L0 563L0 525L0 488L0 450L0 413L0 375L0 338L0 300L0 263L0 225L0 188L0 150L0 113L0 75L0 38L0 0Z" fill="#c64b08"></path><path d="M198 0L264 38L255 75L224 113L221 150L212 188L226 225L192 263L259 300L216 338L215 375L223 413L194 450L242 488L225 525L241 563L253 600L0 600L0 563L0 525L0 488L0 450L0 413L0 375L0 338L0 300L0 263L0 225L0 188L0 150L0 113L0 75L0 38L0 0Z" fill="#b63d06"></path><path d="M203 0L153 38L189 75L194 113L158 150L198 188L170 225L153 263L159 300L161 338L198 375L204 413L181 450L163 488L169 525L145 563L183 600L0 600L0 563L0 525L0 488L0 450L0 413L0 375L0 338L0 300L0 263L0 225L0 188L0 150L0 113L0 75L0 38L0 0Z" fill="#a63005"></path><path d="M105 0L141 38L126 75L129 113L129 150L147 188L99 225L126 263L129 300L124 338L106 375L112 413L102 450L111 488L142 525L115 563L103 600L0 600L0 563L0 525L0 488L0 450L0 413L0 375L0 338L0 300L0 263L0 225L0 188L0 150L0 113L0 75L0 38L0 0Z" fill="#972303"></path><path d="M73 0L66 38L85 75L77 113L76 150L82 188L68 225L64 263L51 300L78 338L76 375L80 413L86 450L89 488L65 525L85 563L80 600L0 600L0 563L0 525L0 488L0 450L0 413L0 375L0 338L0 300L0 263L0 225L0 188L0 150L0 113L0 75L0 38L0 0Z" fill="#871400"></path></svg>