<svg id="visual" viewBox="0 0 960 540" width="960" height="540" xmlns="http://www.w3.org/2000/svg" xmlns:xlink="http://www.w3.org/1999/xlink" version="1.1"><path d="M0 234L40 239C80 244 160 254 240 253.5C320 253 400 242 480 236C560 230 640 229 720 236.2C800 243.3 880 258.7 920 266.3L960 274L960 0L920 0C880 0 800 0 720 0C640 0 560 0 480 0C400 0 320 0 240 0C160 0 80 0 40 0L0 0Z" fill="#ff9318"></path><path d="M0 210L40 205.2C80 200.3 160 190.7 240 194.2C320 197.7 400 214.3 480 213.7C560 213 640 195 720 190.3C800 185.7 880 194.3 920 198.7L960 203L960 0L920 0C880 0 800 0 720 0C640 0 560 0 480 0C400 0 320 0 240 0C160 0 80 0 40 0L0 0Z" fill="#fb820e"></path><path d="M0 164L40 162.3C80 160.7 160 157.3 240 153C320 148.7 400 143.3 480 143.3C560 143.3 640 148.7 720 150.2C800 151.7 880 149.3 920 148.2L960 147L960 0L920 0C880 0 800 0 720 0C640 0 560 0 480 0C400 0 320 0 240 0C160 0 80 0 40 0L0 0Z" fill="#f77007"></path><path d="M0 109L40 115.2C80 121.3 160 133.7 240 134.5C320 135.3 400 124.7 480 124.3C560 124 640 134 720 138.8C800 143.7 880 143.3 920 143.2L960 143L960 0L920 0C880 0 800 0 720 0C640 0 560 0 480 0C400 0 320 0 240 0C160 0 80 0 40 0L0 0Z" fill="#f35d05"></path><path d="M0 71L40 71C80 71 160 71 240 70.2C320 69.3 400 67.7 480 72.7C560 77.7 640 89.3 720 89.3C800 89.3 880 77.7 920 71.8L960 66L960 0L920 0C880 0 800 0 720 0C640 0 560 0 480 0C400 0 320 0 240 0C160 0 80 0 40 0L0 0Z" fill="#ee4807"></path><path d="M0 43L40 44C80 45 160 47 240 50.3C320 53.7 400 58.3 480 57C560 55.7 640 48.3 720 46.7C800 45 880 49 920 51L960 53L960 0L920 0C880 0 800 0 720 0C640 0 560 0 480 0C400 0 320 0 240 0C160 0 80 0 40 0L0 0Z" fill="#e82c0c"></path></svg>