<svg id="visual" viewBox="0 0 960 540" width="100%25" height="100%25" xmlns="http://www.w3.org/2000/svg" xmlns:xlink="http://www.w3.org/1999/xlink" version="1.1"><path d="M0 436L22.8 431.8C45.7 427.7 91.3 419.3 137 413.2C182.7 407 228.3 403 274 397.5C319.7 392 365.3 385 411.2 385.7C457 386.3 503 394.7 548.8 407.2C594.7 419.7 640.3 436.3 686 446.2C731.7 456 777.3 459 823 444.7C868.7 430.3 914.3 398.7 937.2 382.8L960 367L960 0L937.2 0C914.3 0 868.7 0 823 0C777.3 0 731.7 0 686 0C640.3 0 594.7 0 548.8 0C503 0 457 0 411.2 0C365.3 0 319.7 0 274 0C228.3 0 182.7 0 137 0C91.3 0 45.7 0 22.8 0L0 0Z" fill="#ff9318"></path><path d="M0 284L22.8 293.2C45.7 302.3 91.3 320.7 137 332.2C182.7 343.7 228.3 348.3 274 346C319.7 343.7 365.3 334.3 411.2 327.7C457 321 503 317 548.8 311.5C594.7 306 640.3 299 686 300.2C731.7 301.3 777.3 310.7 823 311.2C868.7 311.7 914.3 303.3 937.2 299.2L960 295L960 0L937.2 0C914.3 0 868.7 0 823 0C777.3 0 731.7 0 686 0C640.3 0 594.7 0 548.8 0C503 0 457 0 411.2 0C365.3 0 319.7 0 274 0C228.3 0 182.7 0 137 0C91.3 0 45.7 0 22.8 0L0 0Z" fill="#ff800d"></path><path d="M0 245L22.8 239.2C45.7 233.3 91.3 221.7 137 220.3C182.7 219 228.3 228 274 227.3C319.7 226.7 365.3 216.3 411.2 210.5C457 204.7 503 203.3 548.8 206C594.7 208.7 640.3 215.3 686 216.5C731.7 217.7 777.3 213.3 823 216.5C868.7 219.7 914.3 230.3 937.2 235.7L960 241L960 0L937.2 0C914.3 0 868.7 0 823 0C777.3 0 731.7 0 686 0C640.3 0 594.7 0 548.8 0C503 0 457 0 411.2 0C365.3 0 319.7 0 274 0C228.3 0 182.7 0 137 0C91.3 0 45.7 0 22.8 0L0 0Z" fill="#ff6b09"></path><path d="M0 73L22.8 85.5C45.7 98 91.3 123 137 135.2C182.7 147.3 228.3 146.7 274 139.5C319.7 132.3 365.3 118.7 411.2 111.2C457 103.7 503 102.3 548.8 104.3C594.7 106.3 640.3 111.7 686 115.3C731.7 119 777.3 121 823 114.8C868.7 108.7 914.3 94.3 937.2 87.2L960 80L960 0L937.2 0C914.3 0 868.7 0 823 0C777.3 0 731.7 0 686 0C640.3 0 594.7 0 548.8 0C503 0 457 0 411.2 0C365.3 0 319.7 0 274 0C228.3 0 182.7 0 137 0C91.3 0 45.7 0 22.8 0L0 0Z" fill="#ff530d"></path></svg>